<svg width="180" height="180" viewBox="0 0 180 180" fill="none" xmlns="http://www.w3.org/2000/svg" role="img" aria-labelledby="title desc">
  <title id="title">AI Invention Icon</title>
  <desc id="desc">Icon-only AI Invention mark with secure server core, AI nodes, and automation spark.</desc>
  <rect x="51" y="52" width="78" height="78" rx="22" fill="#F8FAFC" stroke="#E2E8F0" stroke-width="4"/>
  <rect x="68" y="69" width="44" height="44" rx="12" fill="#0F172A"/>
  <path d="M78 90H102" stroke="#22D3EE" stroke-width="5" stroke-linecap="round"/>
  <path d="M78 102H94" stroke="#14B8A6" stroke-width="5" stroke-linecap="round"/>
  <path d="M129 91H151" stroke="#0891B2" stroke-width="5" stroke-linecap="round"/>
  <path d="M28 91H50" stroke="#0D9488" stroke-width="5" stroke-linecap="round"/>
  <path d="M90 27V51" stroke="#0891B2" stroke-width="5" stroke-linecap="round"/>
  <path d="M90 131V155" stroke="#0D9488" stroke-width="5" stroke-linecap="round"/>
  <circle cx="90" cy="27" r="7" fill="#0891B2"/>
  <circle cx="151" cy="91" r="7" fill="#0891B2"/>
  <circle cx="90" cy="155" r="7" fill="#0D9488"/>
  <circle cx="28" cy="91" r="7" fill="#0D9488"/>
  <path d="M124 43L131.1 57.4L147 59.7L135.5 70.9L138.2 86.7L124 79.2L109.8 86.7L112.5 70.9L101 59.7L116.9 57.4L124 43Z" fill="#F59E0B"/>
  <path d="M56 126C69.5 143 96 149 119 132" stroke="#0D9488" stroke-width="5" stroke-linecap="round"/>
</svg>
