<svg width="760" height="180" viewBox="0 0 760 180" fill="none" xmlns="http://www.w3.org/2000/svg" role="img" aria-labelledby="title desc">
  <title id="title">AI Invention Logo</title>
  <desc id="desc">Horizontal AI Invention logo with abstract secure AI node and server mark.</desc>
  <g transform="translate(34 24)">
    <rect x="26" y="28" width="78" height="78" rx="22" fill="#F8FAFC" stroke="#E2E8F0" stroke-width="4"/>
    <rect x="43" y="45" width="44" height="44" rx="12" fill="#0F172A"/>
    <path d="M53 66H77" stroke="#22D3EE" stroke-width="5" stroke-linecap="round"/>
    <path d="M53 78H69" stroke="#14B8A6" stroke-width="5" stroke-linecap="round"/>
    <path d="M104 67H126" stroke="#0891B2" stroke-width="5" stroke-linecap="round"/>
    <path d="M3 67H25" stroke="#0D9488" stroke-width="5" stroke-linecap="round"/>
    <path d="M65 3V27" stroke="#0891B2" stroke-width="5" stroke-linecap="round"/>
    <path d="M65 107V131" stroke="#0D9488" stroke-width="5" stroke-linecap="round"/>
    <circle cx="65" cy="3" r="7" fill="#0891B2"/>
    <circle cx="126" cy="67" r="7" fill="#0891B2"/>
    <circle cx="65" cy="131" r="7" fill="#0D9488"/>
    <circle cx="3" cy="67" r="7" fill="#0D9488"/>
    <path d="M99 19L106.1 33.4L122 35.7L110.5 46.9L113.2 62.7L99 55.2L84.8 62.7L87.5 46.9L76 35.7L91.9 33.4L99 19Z" fill="#F59E0B"/>
    <path d="M31 102C44.5 119 71 125 94 108" stroke="#0D9488" stroke-width="5" stroke-linecap="round"/>
  </g>
  <g transform="translate(204 54)">
    <text x="0" y="58" fill="#0F172A" font-family="Inter, ui-sans-serif, system-ui, -apple-system, BlinkMacSystemFont, 'Segoe UI', sans-serif" font-size="56" font-weight="760" letter-spacing="-1">AI</text>
    <text x="78" y="58" fill="#111827" font-family="Inter, ui-sans-serif, system-ui, -apple-system, BlinkMacSystemFont, 'Segoe UI', sans-serif" font-size="56" font-weight="650" letter-spacing="-1.1">Invention</text>
    <path d="M4 78H260" stroke="url(#lineGradient)" stroke-width="6" stroke-linecap="round"/>
  </g>
  <defs>
    <linearGradient id="lineGradient" x1="0" y1="0" x2="264" y2="0" gradientUnits="userSpaceOnUse">
      <stop stop-color="#0891B2"/>
      <stop offset="0.7" stop-color="#0D9488"/>
      <stop offset="1" stop-color="#F59E0B"/>
    </linearGradient>
  </defs>
</svg>
